G04 (created by PCBNEW (2013-08-23 BZR 4296)-product) date 11/9/2013 10:00:17 AM*
%MOIN*%
G04 Gerber Fmt 3.4, Leading zero omitted, Abs format*
%FSLAX34Y34*%
G01*
G70*
G90*
G04 APERTURE LIST*
%ADD10C,0.005906*%
%ADD11R,0.055000X0.055000*%
%ADD12C,0.055000*%
%ADD13C,0.066000*%
%ADD14C,0.060000*%
%ADD15R,0.062000X0.090000*%
%ADD16O,0.062000X0.090000*%
%ADD17C,0.050000*%
%ADD18C,0.035000*%
%ADD19C,0.030000*%
G04 APERTURE END LIST*
G54D10*
G54D11*
X50560Y-32970D03*
G54D12*
X52060Y-32970D03*
G54D11*
X50175Y-28840D03*
G54D12*
X51675Y-28840D03*
G54D11*
X50770Y-36925D03*
G54D12*
X52270Y-36925D03*
G54D13*
X49810Y-21680D03*
X50810Y-21680D03*
G54D12*
X55950Y-50840D03*
X55950Y-52840D03*
G54D11*
X51010Y-51465D03*
G54D12*
X50010Y-51465D03*
X50010Y-52465D03*
G54D14*
X49490Y-42845D03*
X49490Y-38845D03*
X51330Y-49565D03*
X55330Y-49565D03*
G54D15*
X51315Y-47250D03*
G54D16*
X52315Y-47250D03*
X53315Y-47250D03*
X54315Y-47250D03*
X54315Y-44250D03*
X53315Y-44250D03*
X52315Y-44250D03*
X51315Y-44250D03*
G54D17*
X53970Y-50830D03*
X53970Y-51810D03*
X53970Y-52790D03*
X52710Y-50830D03*
X52710Y-51810D03*
X52710Y-52790D03*
G54D18*
X51800Y-48050D03*
X55000Y-50350D03*
X51950Y-45200D03*
G54D19*
X51315Y-47250D02*
X51300Y-47250D01*
X51300Y-47250D02*
X51750Y-47700D01*
X51750Y-47700D02*
X51750Y-48000D01*
X51750Y-48000D02*
X51800Y-48050D01*
X55000Y-50350D02*
X55400Y-50750D01*
X55400Y-50750D02*
X55400Y-51050D01*
X55400Y-51050D02*
X55450Y-51100D01*
X55450Y-51100D02*
X55450Y-51150D01*
X55450Y-51150D02*
X55950Y-51650D01*
X55950Y-51650D02*
X55950Y-52840D01*
X49810Y-21680D02*
X49800Y-21700D01*
X49800Y-21700D02*
X49500Y-22000D01*
X49500Y-22000D02*
X49500Y-38850D01*
X49500Y-38850D02*
X49490Y-38845D01*
X53315Y-44250D02*
X53300Y-44250D01*
X53300Y-44250D02*
X52900Y-43850D01*
X52900Y-43850D02*
X52900Y-43500D01*
X52900Y-43500D02*
X52250Y-42850D01*
X52250Y-42850D02*
X52250Y-36950D01*
X52250Y-36950D02*
X52270Y-36925D01*
X51330Y-49565D02*
X51350Y-49550D01*
X51350Y-49550D02*
X50000Y-50900D01*
X50000Y-50900D02*
X50000Y-51450D01*
X50000Y-51450D02*
X50010Y-51465D01*
X52315Y-47250D02*
X52300Y-47250D01*
X52300Y-47250D02*
X52750Y-46800D01*
X52750Y-46800D02*
X52750Y-46500D01*
X52750Y-46500D02*
X53300Y-45950D01*
X53300Y-45950D02*
X53300Y-44250D01*
X53300Y-44250D02*
X53315Y-44250D01*
X51330Y-49565D02*
X51350Y-49550D01*
X51350Y-49550D02*
X52300Y-48600D01*
X52300Y-48600D02*
X52300Y-47250D01*
X52300Y-47250D02*
X52315Y-47250D01*
X52060Y-32970D02*
X52050Y-32950D01*
X52050Y-32950D02*
X51700Y-32600D01*
X51700Y-32600D02*
X51700Y-28850D01*
X51700Y-28850D02*
X51675Y-28840D01*
X52270Y-36925D02*
X52250Y-36950D01*
X52250Y-36950D02*
X52050Y-36750D01*
X52050Y-36750D02*
X52050Y-32950D01*
X52050Y-32950D02*
X52060Y-32970D01*
X50010Y-52465D02*
X50000Y-52450D01*
X50000Y-52450D02*
X49450Y-51900D01*
X49450Y-51900D02*
X49450Y-51300D01*
X49450Y-51300D02*
X49500Y-51250D01*
X49500Y-51250D02*
X49500Y-42850D01*
X49500Y-42850D02*
X49490Y-42845D01*
X51315Y-44250D02*
X51300Y-44250D01*
X51300Y-44250D02*
X51750Y-44700D01*
X51750Y-44700D02*
X51750Y-45000D01*
X51750Y-45000D02*
X51950Y-45200D01*
X54315Y-47250D02*
X54300Y-47250D01*
X54300Y-47250D02*
X53950Y-47600D01*
X53950Y-47600D02*
X53950Y-50850D01*
X53950Y-50850D02*
X53970Y-50830D01*
M02*
