G04 #@! TF.FileFunction,Legend,Top*
%FSLAX46Y46*%
G04 Gerber Fmt 4.6, Leading zero omitted, Abs format (unit mm)*
G04 Created by KiCad (PCBNEW 4.0.5) date 01/10/17 19:52:31*
%MOMM*%
%LPD*%
G01*
G04 APERTURE LIST*
%ADD10C,0.150000*%
%ADD11C,0.125000*%
%ADD12C,0.120000*%
G04 APERTURE END LIST*
D10*
D11*
X133202381Y-76591667D02*
X133202381Y-76401190D01*
X133250000Y-76305952D01*
X133345238Y-76210714D01*
X133535714Y-76163095D01*
X133869048Y-76163095D01*
X134059524Y-76210714D01*
X134154762Y-76305952D01*
X134202381Y-76401190D01*
X134202381Y-76591667D01*
X134154762Y-76686905D01*
X134059524Y-76782143D01*
X133869048Y-76829762D01*
X133535714Y-76829762D01*
X133345238Y-76782143D01*
X133250000Y-76686905D01*
X133202381Y-76591667D01*
X133535714Y-75877381D02*
X133535714Y-75496429D01*
X134202381Y-75734524D02*
X133345238Y-75734524D01*
X133250000Y-75686905D01*
X133202381Y-75591667D01*
X133202381Y-75496429D01*
X133535714Y-75305952D02*
X133535714Y-74925000D01*
X134202381Y-75163095D02*
X133345238Y-75163095D01*
X133250000Y-75115476D01*
X133202381Y-75020238D01*
X133202381Y-74925000D01*
D10*
X130800000Y-57050000D02*
X128800000Y-57050000D01*
X128800000Y-60000000D02*
X130800000Y-60000000D01*
X129499000Y-53611000D02*
X129499000Y-53811000D01*
X129499000Y-56205000D02*
X129499000Y-56025000D01*
X126271256Y-55894643D02*
G75*
G03X129499000Y-56211000I1727744J1003643D01*
G01*
X126946994Y-56024068D02*
G75*
G03X129050000Y-56025000I1052006J1133068D01*
G01*
X129486220Y-53584274D02*
G75*
G03X126249000Y-53931000I-1497220J-1306726D01*
G01*
X129012889Y-53811747D02*
G75*
G03X126965000Y-53831000I-1013889J-1079253D01*
G01*
D12*
X124060000Y-68995000D02*
X124060000Y-71655000D01*
X124060000Y-71655000D02*
X126840000Y-71655000D01*
X126840000Y-71655000D02*
X126840000Y-68995000D01*
X126840000Y-68995000D02*
X124060000Y-68995000D01*
X124060000Y-67725000D02*
X124060000Y-66335000D01*
X124060000Y-66335000D02*
X125450000Y-66335000D01*
X124020000Y-63435000D02*
X124950000Y-63435000D01*
X127180000Y-63435000D02*
X126250000Y-63435000D01*
X127180000Y-63435000D02*
X127180000Y-61275000D01*
X124020000Y-63435000D02*
X124020000Y-61975000D01*
D10*
X125850000Y-57075000D02*
X125850000Y-58275000D01*
X124100000Y-58275000D02*
X124100000Y-57075000D01*
X129375000Y-61825000D02*
X130575000Y-61825000D01*
X130575000Y-63575000D02*
X129375000Y-63575000D01*
X124434400Y-73361200D02*
X132943400Y-73361200D01*
X132943400Y-73361200D02*
X132943400Y-78288800D01*
X132943400Y-78288800D02*
X124434400Y-78288800D01*
X124434400Y-78288800D02*
X124434400Y-73361200D01*
X133450000Y-66150000D02*
X133400000Y-66150000D01*
X133450000Y-70300000D02*
X133305000Y-70300000D01*
X128300000Y-70300000D02*
X128445000Y-70300000D01*
X128300000Y-66150000D02*
X128445000Y-66150000D01*
X133450000Y-66150000D02*
X133450000Y-70300000D01*
X128300000Y-66150000D02*
X128300000Y-70300000D01*
X133400000Y-66150000D02*
X133400000Y-64750000D01*
X128655953Y-61157143D02*
X128608334Y-61204762D01*
X128465477Y-61252381D01*
X128370239Y-61252381D01*
X128227381Y-61204762D01*
X128132143Y-61109524D01*
X128084524Y-61014286D01*
X128036905Y-60823810D01*
X128036905Y-60680952D01*
X128084524Y-60490476D01*
X128132143Y-60395238D01*
X128227381Y-60300000D01*
X128370239Y-60252381D01*
X128465477Y-60252381D01*
X128608334Y-60300000D01*
X128655953Y-60347619D01*
X129608334Y-61252381D02*
X129036905Y-61252381D01*
X129322619Y-61252381D02*
X129322619Y-60252381D01*
X129227381Y-60395238D01*
X129132143Y-60490476D01*
X129036905Y-60538095D01*
X130227381Y-60252381D02*
X130322620Y-60252381D01*
X130417858Y-60300000D01*
X130465477Y-60347619D01*
X130513096Y-60442857D01*
X130560715Y-60633333D01*
X130560715Y-60871429D01*
X130513096Y-61061905D01*
X130465477Y-61157143D01*
X130417858Y-61204762D01*
X130322620Y-61252381D01*
X130227381Y-61252381D01*
X130132143Y-61204762D01*
X130084524Y-61157143D01*
X130036905Y-61061905D01*
X129989286Y-60871429D01*
X129989286Y-60633333D01*
X130036905Y-60442857D01*
X130084524Y-60347619D01*
X130132143Y-60300000D01*
X130227381Y-60252381D01*
X131513096Y-61252381D02*
X130941667Y-61252381D01*
X131227381Y-61252381D02*
X131227381Y-60252381D01*
X131132143Y-60395238D01*
X131036905Y-60490476D01*
X130941667Y-60538095D01*
X126684524Y-51302381D02*
X126684524Y-50302381D01*
X126922619Y-50302381D01*
X127065477Y-50350000D01*
X127160715Y-50445238D01*
X127208334Y-50540476D01*
X127255953Y-50730952D01*
X127255953Y-50873810D01*
X127208334Y-51064286D01*
X127160715Y-51159524D01*
X127065477Y-51254762D01*
X126922619Y-51302381D01*
X126684524Y-51302381D01*
X128208334Y-51302381D02*
X127636905Y-51302381D01*
X127922619Y-51302381D02*
X127922619Y-50302381D01*
X127827381Y-50445238D01*
X127732143Y-50540476D01*
X127636905Y-50588095D01*
X128827381Y-50302381D02*
X128922620Y-50302381D01*
X129017858Y-50350000D01*
X129065477Y-50397619D01*
X129113096Y-50492857D01*
X129160715Y-50683333D01*
X129160715Y-50921429D01*
X129113096Y-51111905D01*
X129065477Y-51207143D01*
X129017858Y-51254762D01*
X128922620Y-51302381D01*
X128827381Y-51302381D01*
X128732143Y-51254762D01*
X128684524Y-51207143D01*
X128636905Y-51111905D01*
X128589286Y-50921429D01*
X128589286Y-50683333D01*
X128636905Y-50492857D01*
X128684524Y-50397619D01*
X128732143Y-50350000D01*
X128827381Y-50302381D01*
X130113096Y-51302381D02*
X129541667Y-51302381D01*
X129827381Y-51302381D02*
X129827381Y-50302381D01*
X129732143Y-50445238D01*
X129636905Y-50540476D01*
X129541667Y-50588095D01*
X131488095Y-51277381D02*
X131488095Y-50277381D01*
X132059524Y-51277381D02*
X131630952Y-50705952D01*
X132059524Y-50277381D02*
X131488095Y-50848810D01*
X122952381Y-70315476D02*
X121952381Y-70315476D01*
X121952381Y-69934523D01*
X122000000Y-69839285D01*
X122047619Y-69791666D01*
X122142857Y-69744047D01*
X122285714Y-69744047D01*
X122380952Y-69791666D01*
X122428571Y-69839285D01*
X122476190Y-69934523D01*
X122476190Y-70315476D01*
X122952381Y-68791666D02*
X122952381Y-69363095D01*
X122952381Y-69077381D02*
X121952381Y-69077381D01*
X122095238Y-69172619D01*
X122190476Y-69267857D01*
X122238095Y-69363095D01*
X121952381Y-68172619D02*
X121952381Y-68077380D01*
X122000000Y-67982142D01*
X122047619Y-67934523D01*
X122142857Y-67886904D01*
X122333333Y-67839285D01*
X122571429Y-67839285D01*
X122761905Y-67886904D01*
X122857143Y-67934523D01*
X122904762Y-67982142D01*
X122952381Y-68077380D01*
X122952381Y-68172619D01*
X122904762Y-68267857D01*
X122857143Y-68315476D01*
X122761905Y-68363095D01*
X122571429Y-68410714D01*
X122333333Y-68410714D01*
X122142857Y-68363095D01*
X122047619Y-68315476D01*
X122000000Y-68267857D01*
X121952381Y-68172619D01*
X122952381Y-66886904D02*
X122952381Y-67458333D01*
X122952381Y-67172619D02*
X121952381Y-67172619D01*
X122095238Y-67267857D01*
X122190476Y-67363095D01*
X122238095Y-67458333D01*
X124652381Y-65697619D02*
X124557143Y-65650000D01*
X124461905Y-65554762D01*
X124319048Y-65411905D01*
X124223809Y-65364286D01*
X124128571Y-65364286D01*
X124176190Y-65602381D02*
X124080952Y-65554762D01*
X123985714Y-65459524D01*
X123938095Y-65269048D01*
X123938095Y-64935714D01*
X123985714Y-64745238D01*
X124080952Y-64650000D01*
X124176190Y-64602381D01*
X124366667Y-64602381D01*
X124461905Y-64650000D01*
X124557143Y-64745238D01*
X124604762Y-64935714D01*
X124604762Y-65269048D01*
X124557143Y-65459524D01*
X124461905Y-65554762D01*
X124366667Y-65602381D01*
X124176190Y-65602381D01*
X125557143Y-65602381D02*
X124985714Y-65602381D01*
X125271428Y-65602381D02*
X125271428Y-64602381D01*
X125176190Y-64745238D01*
X125080952Y-64840476D01*
X124985714Y-64888095D01*
X126176190Y-64602381D02*
X126271429Y-64602381D01*
X126366667Y-64650000D01*
X126414286Y-64697619D01*
X126461905Y-64792857D01*
X126509524Y-64983333D01*
X126509524Y-65221429D01*
X126461905Y-65411905D01*
X126414286Y-65507143D01*
X126366667Y-65554762D01*
X126271429Y-65602381D01*
X126176190Y-65602381D01*
X126080952Y-65554762D01*
X126033333Y-65507143D01*
X125985714Y-65411905D01*
X125938095Y-65221429D01*
X125938095Y-64983333D01*
X125985714Y-64792857D01*
X126033333Y-64697619D01*
X126080952Y-64650000D01*
X126176190Y-64602381D01*
X127461905Y-65602381D02*
X126890476Y-65602381D01*
X127176190Y-65602381D02*
X127176190Y-64602381D01*
X127080952Y-64745238D01*
X126985714Y-64840476D01*
X126890476Y-64888095D01*
X124655953Y-60502381D02*
X124322619Y-60026190D01*
X124084524Y-60502381D02*
X124084524Y-59502381D01*
X124465477Y-59502381D01*
X124560715Y-59550000D01*
X124608334Y-59597619D01*
X124655953Y-59692857D01*
X124655953Y-59835714D01*
X124608334Y-59930952D01*
X124560715Y-59978571D01*
X124465477Y-60026190D01*
X124084524Y-60026190D01*
X125608334Y-60502381D02*
X125036905Y-60502381D01*
X125322619Y-60502381D02*
X125322619Y-59502381D01*
X125227381Y-59645238D01*
X125132143Y-59740476D01*
X125036905Y-59788095D01*
X126227381Y-59502381D02*
X126322620Y-59502381D01*
X126417858Y-59550000D01*
X126465477Y-59597619D01*
X126513096Y-59692857D01*
X126560715Y-59883333D01*
X126560715Y-60121429D01*
X126513096Y-60311905D01*
X126465477Y-60407143D01*
X126417858Y-60454762D01*
X126322620Y-60502381D01*
X126227381Y-60502381D01*
X126132143Y-60454762D01*
X126084524Y-60407143D01*
X126036905Y-60311905D01*
X125989286Y-60121429D01*
X125989286Y-59883333D01*
X126036905Y-59692857D01*
X126084524Y-59597619D01*
X126132143Y-59550000D01*
X126227381Y-59502381D01*
X127513096Y-60502381D02*
X126941667Y-60502381D01*
X127227381Y-60502381D02*
X127227381Y-59502381D01*
X127132143Y-59645238D01*
X127036905Y-59740476D01*
X126941667Y-59788095D01*
X132527381Y-62944047D02*
X132051190Y-63277381D01*
X132527381Y-63515476D02*
X131527381Y-63515476D01*
X131527381Y-63134523D01*
X131575000Y-63039285D01*
X131622619Y-62991666D01*
X131717857Y-62944047D01*
X131860714Y-62944047D01*
X131955952Y-62991666D01*
X132003571Y-63039285D01*
X132051190Y-63134523D01*
X132051190Y-63515476D01*
X132527381Y-61991666D02*
X132527381Y-62563095D01*
X132527381Y-62277381D02*
X131527381Y-62277381D01*
X131670238Y-62372619D01*
X131765476Y-62467857D01*
X131813095Y-62563095D01*
X131527381Y-61372619D02*
X131527381Y-61277380D01*
X131575000Y-61182142D01*
X131622619Y-61134523D01*
X131717857Y-61086904D01*
X131908333Y-61039285D01*
X132146429Y-61039285D01*
X132336905Y-61086904D01*
X132432143Y-61134523D01*
X132479762Y-61182142D01*
X132527381Y-61277380D01*
X132527381Y-61372619D01*
X132479762Y-61467857D01*
X132432143Y-61515476D01*
X132336905Y-61563095D01*
X132146429Y-61610714D01*
X131908333Y-61610714D01*
X131717857Y-61563095D01*
X131622619Y-61515476D01*
X131575000Y-61467857D01*
X131527381Y-61372619D01*
X131622619Y-60658333D02*
X131575000Y-60610714D01*
X131527381Y-60515476D01*
X131527381Y-60277380D01*
X131575000Y-60182142D01*
X131622619Y-60134523D01*
X131717857Y-60086904D01*
X131813095Y-60086904D01*
X131955952Y-60134523D01*
X132527381Y-60705952D01*
X132527381Y-60086904D01*
X116514286Y-75079762D02*
X116657143Y-75127381D01*
X116895239Y-75127381D01*
X116990477Y-75079762D01*
X117038096Y-75032143D01*
X117085715Y-74936905D01*
X117085715Y-74841667D01*
X117038096Y-74746429D01*
X116990477Y-74698810D01*
X116895239Y-74651190D01*
X116704762Y-74603571D01*
X116609524Y-74555952D01*
X116561905Y-74508333D01*
X116514286Y-74413095D01*
X116514286Y-74317857D01*
X116561905Y-74222619D01*
X116609524Y-74175000D01*
X116704762Y-74127381D01*
X116942858Y-74127381D01*
X117085715Y-74175000D01*
X117419048Y-74127381D02*
X117657143Y-75127381D01*
X117847620Y-74413095D01*
X118038096Y-75127381D01*
X118276191Y-74127381D01*
X119180953Y-75127381D02*
X118609524Y-75127381D01*
X118895238Y-75127381D02*
X118895238Y-74127381D01*
X118800000Y-74270238D01*
X118704762Y-74365476D01*
X118609524Y-74413095D01*
X119800000Y-74127381D02*
X119895239Y-74127381D01*
X119990477Y-74175000D01*
X120038096Y-74222619D01*
X120085715Y-74317857D01*
X120133334Y-74508333D01*
X120133334Y-74746429D01*
X120085715Y-74936905D01*
X120038096Y-75032143D01*
X119990477Y-75079762D01*
X119895239Y-75127381D01*
X119800000Y-75127381D01*
X119704762Y-75079762D01*
X119657143Y-75032143D01*
X119609524Y-74936905D01*
X119561905Y-74746429D01*
X119561905Y-74508333D01*
X119609524Y-74317857D01*
X119657143Y-74222619D01*
X119704762Y-74175000D01*
X119800000Y-74127381D01*
X121085715Y-75127381D02*
X120514286Y-75127381D01*
X120800000Y-75127381D02*
X120800000Y-74127381D01*
X120704762Y-74270238D01*
X120609524Y-74365476D01*
X120514286Y-74413095D01*
X113560714Y-76727381D02*
X113560714Y-75727381D01*
X113894048Y-76441667D01*
X114227381Y-75727381D01*
X114227381Y-76727381D01*
X114703571Y-76727381D02*
X114703571Y-75727381D01*
X114703571Y-76203571D02*
X115275000Y-76203571D01*
X115275000Y-76727381D02*
X115275000Y-75727381D01*
X115703571Y-76679762D02*
X115846428Y-76727381D01*
X116084524Y-76727381D01*
X116179762Y-76679762D01*
X116227381Y-76632143D01*
X116275000Y-76536905D01*
X116275000Y-76441667D01*
X116227381Y-76346429D01*
X116179762Y-76298810D01*
X116084524Y-76251190D01*
X115894047Y-76203571D01*
X115798809Y-76155952D01*
X115751190Y-76108333D01*
X115703571Y-76013095D01*
X115703571Y-75917857D01*
X115751190Y-75822619D01*
X115798809Y-75775000D01*
X115894047Y-75727381D01*
X116132143Y-75727381D01*
X116275000Y-75775000D01*
X116655952Y-76679762D02*
X116798809Y-76727381D01*
X117036905Y-76727381D01*
X117132143Y-76679762D01*
X117179762Y-76632143D01*
X117227381Y-76536905D01*
X117227381Y-76441667D01*
X117179762Y-76346429D01*
X117132143Y-76298810D01*
X117036905Y-76251190D01*
X116846428Y-76203571D01*
X116751190Y-76155952D01*
X116703571Y-76108333D01*
X116655952Y-76013095D01*
X116655952Y-75917857D01*
X116703571Y-75822619D01*
X116751190Y-75775000D01*
X116846428Y-75727381D01*
X117084524Y-75727381D01*
X117227381Y-75775000D01*
X118179762Y-76727381D02*
X117608333Y-76727381D01*
X117894047Y-76727381D02*
X117894047Y-75727381D01*
X117798809Y-75870238D01*
X117703571Y-75965476D01*
X117608333Y-76013095D01*
X119132143Y-76727381D02*
X118560714Y-76727381D01*
X118846428Y-76727381D02*
X118846428Y-75727381D01*
X118751190Y-75870238D01*
X118655952Y-75965476D01*
X118560714Y-76013095D01*
X119751190Y-75727381D02*
X119846429Y-75727381D01*
X119941667Y-75775000D01*
X119989286Y-75822619D01*
X120036905Y-75917857D01*
X120084524Y-76108333D01*
X120084524Y-76346429D01*
X120036905Y-76536905D01*
X119989286Y-76632143D01*
X119941667Y-76679762D01*
X119846429Y-76727381D01*
X119751190Y-76727381D01*
X119655952Y-76679762D01*
X119608333Y-76632143D01*
X119560714Y-76536905D01*
X119513095Y-76346429D01*
X119513095Y-76108333D01*
X119560714Y-75917857D01*
X119608333Y-75822619D01*
X119655952Y-75775000D01*
X119751190Y-75727381D01*
X120941667Y-76060714D02*
X120941667Y-76727381D01*
X120703571Y-75679762D02*
X120465476Y-76394048D01*
X121084524Y-76394048D01*
X127052381Y-70339286D02*
X127861905Y-70339286D01*
X127957143Y-70291667D01*
X128004762Y-70244048D01*
X128052381Y-70148810D01*
X128052381Y-69958333D01*
X128004762Y-69863095D01*
X127957143Y-69815476D01*
X127861905Y-69767857D01*
X127052381Y-69767857D01*
X128052381Y-68767857D02*
X128052381Y-69339286D01*
X128052381Y-69053572D02*
X127052381Y-69053572D01*
X127195238Y-69148810D01*
X127290476Y-69244048D01*
X127338095Y-69339286D01*
X127052381Y-68148810D02*
X127052381Y-68053571D01*
X127100000Y-67958333D01*
X127147619Y-67910714D01*
X127242857Y-67863095D01*
X127433333Y-67815476D01*
X127671429Y-67815476D01*
X127861905Y-67863095D01*
X127957143Y-67910714D01*
X128004762Y-67958333D01*
X128052381Y-68053571D01*
X128052381Y-68148810D01*
X128004762Y-68244048D01*
X127957143Y-68291667D01*
X127861905Y-68339286D01*
X127671429Y-68386905D01*
X127433333Y-68386905D01*
X127242857Y-68339286D01*
X127147619Y-68291667D01*
X127100000Y-68244048D01*
X127052381Y-68148810D01*
X128052381Y-66863095D02*
X128052381Y-67434524D01*
X128052381Y-67148810D02*
X127052381Y-67148810D01*
X127195238Y-67244048D01*
X127290476Y-67339286D01*
X127338095Y-67434524D01*
M02*
