M48
INCH,TZ
T1C0.025
T2C0.031
T3C0.032
%
G90
G05
T1
X51800Y-48050
X51950Y-45200
X55000Y-50350
T2
X52710Y-50830
X52710Y-51810
X52710Y-52790
X53970Y-50830
X53970Y-51810
X53970Y-52790
T3
X49490Y-38845
X49490Y-42845
X49810Y-21680
X50010Y-51465
X50010Y-52465
X50175Y-28840
X50560Y-32970
X50770Y-36925
X50810Y-21680
X51010Y-51465
X51315Y-44250
X51315Y-47250
X51330Y-49565
X51675Y-28840
X52060Y-32970
X52270Y-36925
X52315Y-44250
X52315Y-47250
X53315Y-44250
X53315Y-47250
X54315Y-44250
X54315Y-47250
X55330Y-49565
X55950Y-50840
X55950Y-52840
T0
M30
