G04 (created by PCBNEW (2013-08-23 BZR 4296)-product) date 11/9/2013 10:00:17 AM*
%MOIN*%
G04 Gerber Fmt 3.4, Leading zero omitted, Abs format*
%FSLAX34Y34*%
G01*
G70*
G90*
G04 APERTURE LIST*
%ADD10C,0.005906*%
%ADD11C,0.007764*%
%ADD12C,0.015000*%
%ADD13C,0.010000*%
%ADD14C,0.006000*%
%ADD15C,0.012000*%
%ADD16C,0.008000*%
%ADD17C,0.003500*%
%ADD18C,0.011250*%
G04 APERTURE END LIST*
G54D10*
G54D11*
X54456Y-42893D02*
X54716Y-42800D01*
X54456Y-42707D01*
X54716Y-42354D02*
X54716Y-42577D01*
X54716Y-42466D02*
X54326Y-42466D01*
X54381Y-42503D01*
X54419Y-42540D01*
X54437Y-42577D01*
X53899Y-42943D02*
X53918Y-42961D01*
X53936Y-43017D01*
X53936Y-43054D01*
X53918Y-43110D01*
X53880Y-43147D01*
X53843Y-43166D01*
X53769Y-43184D01*
X53713Y-43184D01*
X53639Y-43166D01*
X53601Y-43147D01*
X53564Y-43110D01*
X53546Y-43054D01*
X53546Y-43017D01*
X53564Y-42961D01*
X53583Y-42943D01*
X53936Y-42775D02*
X53546Y-42775D01*
X53936Y-42608D02*
X53732Y-42608D01*
X53694Y-42626D01*
X53676Y-42664D01*
X53676Y-42719D01*
X53694Y-42757D01*
X53713Y-42775D01*
X53936Y-42422D02*
X53676Y-42422D01*
X53750Y-42422D02*
X53713Y-42403D01*
X53694Y-42385D01*
X53676Y-42348D01*
X53676Y-42310D01*
X53936Y-42180D02*
X53676Y-42180D01*
X53546Y-42180D02*
X53564Y-42199D01*
X53583Y-42180D01*
X53564Y-42162D01*
X53546Y-42180D01*
X53583Y-42180D01*
X53918Y-42013D02*
X53936Y-41976D01*
X53936Y-41901D01*
X53918Y-41864D01*
X53880Y-41845D01*
X53862Y-41845D01*
X53825Y-41864D01*
X53806Y-41901D01*
X53806Y-41957D01*
X53787Y-41994D01*
X53750Y-42013D01*
X53732Y-42013D01*
X53694Y-41994D01*
X53676Y-41957D01*
X53676Y-41901D01*
X53694Y-41864D01*
X53676Y-41734D02*
X53676Y-41585D01*
X53546Y-41678D02*
X53880Y-41678D01*
X53918Y-41659D01*
X53936Y-41622D01*
X53936Y-41585D01*
X53936Y-41455D02*
X53676Y-41455D01*
X53713Y-41455D02*
X53694Y-41436D01*
X53676Y-41399D01*
X53676Y-41343D01*
X53694Y-41306D01*
X53732Y-41287D01*
X53936Y-41287D01*
X53732Y-41287D02*
X53694Y-41269D01*
X53676Y-41232D01*
X53676Y-41176D01*
X53694Y-41139D01*
X53732Y-41120D01*
X53936Y-41120D01*
X53936Y-40767D02*
X53732Y-40767D01*
X53694Y-40785D01*
X53676Y-40823D01*
X53676Y-40897D01*
X53694Y-40934D01*
X53918Y-40767D02*
X53936Y-40804D01*
X53936Y-40897D01*
X53918Y-40934D01*
X53880Y-40953D01*
X53843Y-40953D01*
X53806Y-40934D01*
X53787Y-40897D01*
X53787Y-40804D01*
X53769Y-40767D01*
X53918Y-40599D02*
X53936Y-40562D01*
X53936Y-40488D01*
X53918Y-40451D01*
X53880Y-40432D01*
X53862Y-40432D01*
X53825Y-40451D01*
X53806Y-40488D01*
X53806Y-40544D01*
X53787Y-40581D01*
X53750Y-40599D01*
X53732Y-40599D01*
X53694Y-40581D01*
X53676Y-40544D01*
X53676Y-40488D01*
X53694Y-40451D01*
X53918Y-39986D02*
X53936Y-39930D01*
X53936Y-39837D01*
X53918Y-39800D01*
X53899Y-39781D01*
X53862Y-39762D01*
X53825Y-39762D01*
X53787Y-39781D01*
X53769Y-39800D01*
X53750Y-39837D01*
X53732Y-39911D01*
X53713Y-39948D01*
X53694Y-39967D01*
X53657Y-39986D01*
X53620Y-39986D01*
X53583Y-39967D01*
X53564Y-39948D01*
X53546Y-39911D01*
X53546Y-39818D01*
X53564Y-39762D01*
X53676Y-39651D02*
X53676Y-39502D01*
X53546Y-39595D02*
X53880Y-39595D01*
X53918Y-39576D01*
X53936Y-39539D01*
X53936Y-39502D01*
X53936Y-39205D02*
X53732Y-39205D01*
X53694Y-39223D01*
X53676Y-39260D01*
X53676Y-39335D01*
X53694Y-39372D01*
X53918Y-39205D02*
X53936Y-39242D01*
X53936Y-39335D01*
X53918Y-39372D01*
X53880Y-39391D01*
X53843Y-39391D01*
X53806Y-39372D01*
X53787Y-39335D01*
X53787Y-39242D01*
X53769Y-39205D01*
X53936Y-39019D02*
X53676Y-39019D01*
X53750Y-39019D02*
X53713Y-39000D01*
X53694Y-38981D01*
X53676Y-38944D01*
X53676Y-38907D01*
X53936Y-38293D02*
X53936Y-38479D01*
X53546Y-38479D01*
X53936Y-38163D02*
X53676Y-38163D01*
X53546Y-38163D02*
X53564Y-38182D01*
X53583Y-38163D01*
X53564Y-38144D01*
X53546Y-38163D01*
X53583Y-38163D01*
X53676Y-37810D02*
X53992Y-37810D01*
X54029Y-37828D01*
X54048Y-37847D01*
X54066Y-37884D01*
X54066Y-37940D01*
X54048Y-37977D01*
X53918Y-37810D02*
X53936Y-37847D01*
X53936Y-37921D01*
X53918Y-37958D01*
X53899Y-37977D01*
X53862Y-37996D01*
X53750Y-37996D01*
X53713Y-37977D01*
X53694Y-37958D01*
X53676Y-37921D01*
X53676Y-37847D01*
X53694Y-37810D01*
X53936Y-37624D02*
X53546Y-37624D01*
X53936Y-37456D02*
X53732Y-37456D01*
X53694Y-37475D01*
X53676Y-37512D01*
X53676Y-37568D01*
X53694Y-37605D01*
X53713Y-37624D01*
X53676Y-37326D02*
X53676Y-37177D01*
X53546Y-37270D02*
X53880Y-37270D01*
X53918Y-37252D01*
X53936Y-37215D01*
X53936Y-37177D01*
X53137Y-42538D02*
X53155Y-42482D01*
X53174Y-42464D01*
X53211Y-42445D01*
X53267Y-42445D01*
X53304Y-42464D01*
X53323Y-42482D01*
X53341Y-42519D01*
X53341Y-42668D01*
X52951Y-42668D01*
X52951Y-42538D01*
X52969Y-42501D01*
X52988Y-42482D01*
X53025Y-42464D01*
X53062Y-42464D01*
X53099Y-42482D01*
X53118Y-42501D01*
X53137Y-42538D01*
X53137Y-42668D01*
X53341Y-42278D02*
X53081Y-42278D01*
X53155Y-42278D02*
X53118Y-42259D01*
X53099Y-42240D01*
X53081Y-42203D01*
X53081Y-42166D01*
X53341Y-41980D02*
X53323Y-42017D01*
X53304Y-42036D01*
X53267Y-42055D01*
X53155Y-42055D01*
X53118Y-42036D01*
X53099Y-42017D01*
X53081Y-41980D01*
X53081Y-41924D01*
X53099Y-41887D01*
X53118Y-41869D01*
X53155Y-41850D01*
X53267Y-41850D01*
X53304Y-41869D01*
X53323Y-41887D01*
X53341Y-41924D01*
X53341Y-41980D01*
X53341Y-41627D02*
X53323Y-41664D01*
X53304Y-41683D01*
X53267Y-41701D01*
X53155Y-41701D01*
X53118Y-41683D01*
X53099Y-41664D01*
X53081Y-41627D01*
X53081Y-41571D01*
X53099Y-41534D01*
X53118Y-41515D01*
X53155Y-41497D01*
X53267Y-41497D01*
X53304Y-41515D01*
X53323Y-41534D01*
X53341Y-41571D01*
X53341Y-41627D01*
X53341Y-41329D02*
X52951Y-41329D01*
X53192Y-41292D02*
X53341Y-41180D01*
X53081Y-41180D02*
X53230Y-41329D01*
X53323Y-40864D02*
X53341Y-40901D01*
X53341Y-40976D01*
X53323Y-41013D01*
X53285Y-41032D01*
X53137Y-41032D01*
X53099Y-41013D01*
X53081Y-40976D01*
X53081Y-40901D01*
X53099Y-40864D01*
X53137Y-40846D01*
X53174Y-40846D01*
X53211Y-41032D01*
X53341Y-40381D02*
X52951Y-40381D01*
X53137Y-40381D02*
X53137Y-40158D01*
X53341Y-40158D02*
X52951Y-40158D01*
X53323Y-39823D02*
X53341Y-39860D01*
X53341Y-39934D01*
X53323Y-39972D01*
X53285Y-39990D01*
X53137Y-39990D01*
X53099Y-39972D01*
X53081Y-39934D01*
X53081Y-39860D01*
X53099Y-39823D01*
X53137Y-39804D01*
X53174Y-39804D01*
X53211Y-39990D01*
X53341Y-39469D02*
X52951Y-39469D01*
X53323Y-39469D02*
X53341Y-39507D01*
X53341Y-39581D01*
X53323Y-39618D01*
X53304Y-39637D01*
X53267Y-39655D01*
X53155Y-39655D01*
X53118Y-39637D01*
X53099Y-39618D01*
X53081Y-39581D01*
X53081Y-39507D01*
X53099Y-39469D01*
X53341Y-39283D02*
X53081Y-39283D01*
X53155Y-39283D02*
X53118Y-39265D01*
X53099Y-39246D01*
X53081Y-39209D01*
X53081Y-39172D01*
X53341Y-39042D02*
X53081Y-39042D01*
X52951Y-39042D02*
X52969Y-39060D01*
X52988Y-39042D01*
X52969Y-39023D01*
X52951Y-39042D01*
X52988Y-39042D01*
X53323Y-38688D02*
X53341Y-38726D01*
X53341Y-38800D01*
X53323Y-38837D01*
X53304Y-38856D01*
X53267Y-38874D01*
X53155Y-38874D01*
X53118Y-38856D01*
X53099Y-38837D01*
X53081Y-38800D01*
X53081Y-38726D01*
X53099Y-38688D01*
X53341Y-38521D02*
X52951Y-38521D01*
X53192Y-38484D02*
X53341Y-38372D01*
X53081Y-38372D02*
X53230Y-38521D01*
G54D12*
X53060Y-32970D02*
G75*
G03X53060Y-32970I-1750J0D01*
G74*
G01*
X52675Y-28840D02*
G75*
G03X52675Y-28840I-1750J0D01*
G74*
G01*
X53270Y-36925D02*
G75*
G03X53270Y-36925I-1750J0D01*
G74*
G01*
G54D13*
X51030Y-22180D02*
X51030Y-21180D01*
G54D14*
X49949Y-21295D02*
G75*
G03X49810Y-21680I460J-384D01*
G74*
G01*
X49810Y-21680D02*
G75*
G03X49962Y-22078I599J0D01*
G74*
G01*
X51009Y-21679D02*
G75*
G03X50865Y-21290I-599J0D01*
G74*
G01*
X50870Y-22064D02*
G75*
G03X51010Y-21680I-460J384D01*
G74*
G01*
X50897Y-21330D02*
G75*
G03X50410Y-21080I-487J-349D01*
G74*
G01*
X50409Y-21080D02*
G75*
G03X49930Y-21320I0J-600D01*
G74*
G01*
X50410Y-22279D02*
G75*
G03X50883Y-22048I0J599D01*
G74*
G01*
X49936Y-22048D02*
G75*
G03X50410Y-22280I473J368D01*
G74*
G01*
X50410Y-21430D02*
G75*
G03X50160Y-21680I0J-250D01*
G74*
G01*
X50410Y-21280D02*
G75*
G03X50010Y-21680I0J-400D01*
G74*
G01*
X50410Y-21930D02*
G75*
G03X50660Y-21680I0J250D01*
G74*
G01*
X50410Y-22080D02*
G75*
G03X50810Y-21680I0J400D01*
G74*
G01*
G54D13*
X51023Y-21166D02*
G75*
G03X50410Y-20880I-613J-513D01*
G74*
G01*
X50409Y-20881D02*
G75*
G03X49705Y-21304I0J-799D01*
G74*
G01*
X50411Y-22478D02*
G75*
G03X51020Y-22196I-1J798D01*
G74*
G01*
X49715Y-22077D02*
G75*
G03X50410Y-22480I694J397D01*
G74*
G01*
X49705Y-21300D02*
G75*
G03X49610Y-21680I704J-379D01*
G74*
G01*
X49610Y-21680D02*
G75*
G03X49729Y-22099I799J0D01*
G74*
G01*
G54D15*
X56350Y-50440D02*
X56350Y-53240D01*
X56350Y-53240D02*
X55550Y-53240D01*
X55550Y-53240D02*
X55550Y-50440D01*
X55550Y-50440D02*
X56350Y-50440D01*
X56150Y-50440D02*
X56350Y-50640D01*
X50010Y-52965D02*
X51510Y-51465D01*
X51510Y-51465D02*
X51510Y-50965D01*
X51510Y-50965D02*
X51010Y-50465D01*
X51010Y-50465D02*
X50010Y-50465D01*
X50010Y-50465D02*
X49010Y-51465D01*
X49010Y-51465D02*
X49010Y-52465D01*
X49010Y-52465D02*
X49510Y-52965D01*
X49510Y-52965D02*
X50010Y-52965D01*
X49490Y-42845D02*
X49490Y-42445D01*
X49490Y-42445D02*
X49090Y-42445D01*
X49090Y-42445D02*
X49090Y-39245D01*
X49090Y-39245D02*
X49890Y-39245D01*
X49890Y-39245D02*
X49890Y-42445D01*
X49890Y-42445D02*
X49490Y-42445D01*
X49290Y-42445D02*
X49090Y-42245D01*
X49490Y-38845D02*
X49490Y-39245D01*
X51330Y-49565D02*
X51730Y-49565D01*
X51730Y-49565D02*
X51730Y-49165D01*
X51730Y-49165D02*
X54930Y-49165D01*
X54930Y-49165D02*
X54930Y-49965D01*
X54930Y-49965D02*
X51730Y-49965D01*
X51730Y-49965D02*
X51730Y-49565D01*
X51730Y-49365D02*
X51930Y-49165D01*
X55330Y-49565D02*
X54930Y-49565D01*
G54D12*
X50815Y-45250D02*
X51315Y-45250D01*
X51315Y-45250D02*
X51315Y-46250D01*
X51315Y-46250D02*
X50815Y-46250D01*
X50815Y-44750D02*
X54815Y-44750D01*
X54815Y-44750D02*
X54815Y-46750D01*
X54815Y-46750D02*
X50815Y-46750D01*
X50815Y-46750D02*
X50815Y-44750D01*
G54D10*
X57175Y-53750D02*
X48655Y-53750D01*
X48655Y-53750D02*
X48655Y-20750D01*
X48655Y-20750D02*
X51975Y-20750D01*
X51975Y-20750D02*
X57175Y-53750D01*
X54310Y-50130D02*
X54310Y-53480D01*
X54310Y-53480D02*
X52370Y-53480D01*
X52370Y-53480D02*
X52370Y-50130D01*
X52370Y-50130D02*
X54310Y-50130D01*
G54D16*
X51243Y-34012D02*
X51224Y-34031D01*
X51167Y-34050D01*
X51129Y-34050D01*
X51071Y-34031D01*
X51033Y-33993D01*
X51014Y-33955D01*
X50995Y-33879D01*
X50995Y-33822D01*
X51014Y-33746D01*
X51033Y-33708D01*
X51071Y-33670D01*
X51129Y-33650D01*
X51167Y-33650D01*
X51224Y-33670D01*
X51243Y-33689D01*
X51624Y-34050D02*
X51395Y-34050D01*
X51510Y-34050D02*
X51510Y-33650D01*
X51471Y-33708D01*
X51433Y-33746D01*
X51395Y-33765D01*
X50710Y-31984D02*
X50710Y-32250D01*
X50614Y-31831D02*
X50519Y-32117D01*
X50767Y-32117D01*
X50881Y-31850D02*
X51148Y-31850D01*
X50976Y-32250D01*
X51376Y-31850D02*
X51414Y-31850D01*
X51452Y-31870D01*
X51471Y-31889D01*
X51490Y-31927D01*
X51510Y-32003D01*
X51510Y-32098D01*
X51490Y-32174D01*
X51471Y-32212D01*
X51452Y-32231D01*
X51414Y-32250D01*
X51376Y-32250D01*
X51338Y-32231D01*
X51319Y-32212D01*
X51300Y-32174D01*
X51281Y-32098D01*
X51281Y-32003D01*
X51300Y-31927D01*
X51319Y-31889D01*
X51338Y-31870D01*
X51376Y-31850D01*
X51852Y-31984D02*
X51852Y-32250D01*
X51681Y-31984D02*
X51681Y-32193D01*
X51700Y-32231D01*
X51738Y-32250D01*
X51795Y-32250D01*
X51833Y-32231D01*
X51852Y-32212D01*
X51986Y-31984D02*
X52138Y-31984D01*
X52043Y-32250D02*
X52043Y-31908D01*
X52062Y-31870D01*
X52100Y-31850D01*
X52138Y-31850D01*
G54D15*
X49731Y-32962D02*
X50188Y-32962D01*
X49960Y-33191D02*
X49960Y-32734D01*
G54D16*
X50858Y-29882D02*
X50839Y-29901D01*
X50782Y-29920D01*
X50744Y-29920D01*
X50686Y-29901D01*
X50648Y-29863D01*
X50629Y-29825D01*
X50610Y-29749D01*
X50610Y-29692D01*
X50629Y-29616D01*
X50648Y-29578D01*
X50686Y-29540D01*
X50744Y-29520D01*
X50782Y-29520D01*
X50839Y-29540D01*
X50858Y-29559D01*
X51010Y-29559D02*
X51029Y-29540D01*
X51067Y-29520D01*
X51163Y-29520D01*
X51201Y-29540D01*
X51220Y-29559D01*
X51239Y-29597D01*
X51239Y-29635D01*
X51220Y-29692D01*
X50991Y-29920D01*
X51239Y-29920D01*
X50325Y-27854D02*
X50325Y-28120D01*
X50229Y-27701D02*
X50134Y-27987D01*
X50382Y-27987D01*
X50496Y-27720D02*
X50763Y-27720D01*
X50591Y-28120D01*
X50991Y-27720D02*
X51029Y-27720D01*
X51067Y-27740D01*
X51086Y-27759D01*
X51105Y-27797D01*
X51125Y-27873D01*
X51125Y-27968D01*
X51105Y-28044D01*
X51086Y-28082D01*
X51067Y-28101D01*
X51029Y-28120D01*
X50991Y-28120D01*
X50953Y-28101D01*
X50934Y-28082D01*
X50915Y-28044D01*
X50896Y-27968D01*
X50896Y-27873D01*
X50915Y-27797D01*
X50934Y-27759D01*
X50953Y-27740D01*
X50991Y-27720D01*
X51467Y-27854D02*
X51467Y-28120D01*
X51296Y-27854D02*
X51296Y-28063D01*
X51315Y-28101D01*
X51353Y-28120D01*
X51410Y-28120D01*
X51448Y-28101D01*
X51467Y-28082D01*
X51601Y-27854D02*
X51753Y-27854D01*
X51658Y-28120D02*
X51658Y-27778D01*
X51677Y-27740D01*
X51715Y-27720D01*
X51753Y-27720D01*
G54D15*
X49346Y-28832D02*
X49803Y-28832D01*
X49575Y-29061D02*
X49575Y-28604D01*
G54D16*
X50903Y-38302D02*
X50884Y-38321D01*
X50827Y-38340D01*
X50789Y-38340D01*
X50731Y-38321D01*
X50693Y-38283D01*
X50674Y-38245D01*
X50655Y-38169D01*
X50655Y-38112D01*
X50674Y-38036D01*
X50693Y-37998D01*
X50731Y-37960D01*
X50789Y-37940D01*
X50827Y-37940D01*
X50884Y-37960D01*
X50903Y-37979D01*
X51036Y-37940D02*
X51284Y-37940D01*
X51150Y-38093D01*
X51208Y-38093D01*
X51246Y-38112D01*
X51265Y-38131D01*
X51284Y-38169D01*
X51284Y-38264D01*
X51265Y-38302D01*
X51246Y-38321D01*
X51208Y-38340D01*
X51093Y-38340D01*
X51055Y-38321D01*
X51036Y-38302D01*
X50920Y-35939D02*
X50920Y-36205D01*
X50824Y-35786D02*
X50729Y-36072D01*
X50977Y-36072D01*
X51091Y-35805D02*
X51358Y-35805D01*
X51186Y-36205D01*
X51586Y-35805D02*
X51624Y-35805D01*
X51662Y-35825D01*
X51681Y-35844D01*
X51700Y-35882D01*
X51720Y-35958D01*
X51720Y-36053D01*
X51700Y-36129D01*
X51681Y-36167D01*
X51662Y-36186D01*
X51624Y-36205D01*
X51586Y-36205D01*
X51548Y-36186D01*
X51529Y-36167D01*
X51510Y-36129D01*
X51491Y-36053D01*
X51491Y-35958D01*
X51510Y-35882D01*
X51529Y-35844D01*
X51548Y-35825D01*
X51586Y-35805D01*
X52062Y-35939D02*
X52062Y-36205D01*
X51891Y-35939D02*
X51891Y-36148D01*
X51910Y-36186D01*
X51948Y-36205D01*
X52005Y-36205D01*
X52043Y-36186D01*
X52062Y-36167D01*
X52196Y-35939D02*
X52348Y-35939D01*
X52253Y-36205D02*
X52253Y-35863D01*
X52272Y-35825D01*
X52310Y-35805D01*
X52348Y-35805D01*
G54D15*
X49941Y-36917D02*
X50398Y-36917D01*
X50170Y-37146D02*
X50170Y-36689D01*
G54D17*
X50788Y-20715D02*
X50788Y-20415D01*
X50860Y-20415D01*
X50902Y-20430D01*
X50931Y-20458D01*
X50945Y-20487D01*
X50960Y-20544D01*
X50960Y-20587D01*
X50945Y-20644D01*
X50931Y-20672D01*
X50902Y-20701D01*
X50860Y-20715D01*
X50788Y-20715D01*
X51245Y-20715D02*
X51074Y-20715D01*
X51160Y-20715D02*
X51160Y-20415D01*
X51131Y-20458D01*
X51102Y-20487D01*
X51074Y-20501D01*
X49631Y-22815D02*
X49488Y-22815D01*
X49488Y-22515D01*
X49731Y-22658D02*
X49831Y-22658D01*
X49874Y-22815D02*
X49731Y-22815D01*
X49731Y-22515D01*
X49874Y-22515D01*
X50002Y-22815D02*
X50002Y-22515D01*
X50074Y-22515D01*
X50117Y-22530D01*
X50145Y-22558D01*
X50160Y-22587D01*
X50174Y-22644D01*
X50174Y-22687D01*
X50160Y-22744D01*
X50145Y-22772D01*
X50117Y-22801D01*
X50074Y-22815D01*
X50002Y-22815D01*
X50274Y-22515D02*
X50460Y-22515D01*
X50360Y-22630D01*
X50402Y-22630D01*
X50431Y-22644D01*
X50445Y-22658D01*
X50460Y-22687D01*
X50460Y-22758D01*
X50445Y-22787D01*
X50431Y-22801D01*
X50402Y-22815D01*
X50317Y-22815D01*
X50288Y-22801D01*
X50274Y-22787D01*
X50588Y-22815D02*
X50588Y-22515D01*
X50688Y-22730D01*
X50788Y-22515D01*
X50788Y-22815D01*
X50931Y-22815D02*
X50931Y-22515D01*
X51031Y-22730D01*
X51131Y-22515D01*
X51131Y-22815D01*
G54D16*
X56130Y-52135D02*
X55730Y-52135D01*
X55730Y-51982D01*
X55750Y-51944D01*
X55769Y-51925D01*
X55807Y-51906D01*
X55864Y-51906D01*
X55902Y-51925D01*
X55921Y-51944D01*
X55940Y-51982D01*
X55940Y-52135D01*
X56130Y-51525D02*
X56130Y-51754D01*
X56130Y-51639D02*
X55730Y-51639D01*
X55788Y-51678D01*
X55826Y-51716D01*
X55845Y-51754D01*
X50561Y-53379D02*
X50523Y-53360D01*
X50485Y-53321D01*
X50428Y-53264D01*
X50390Y-53245D01*
X50352Y-53245D01*
X50371Y-53340D02*
X50333Y-53321D01*
X50295Y-53283D01*
X50276Y-53207D01*
X50276Y-53074D01*
X50295Y-52998D01*
X50333Y-52960D01*
X50371Y-52940D01*
X50447Y-52940D01*
X50485Y-52960D01*
X50523Y-52998D01*
X50542Y-53074D01*
X50542Y-53207D01*
X50523Y-53283D01*
X50485Y-53321D01*
X50447Y-53340D01*
X50371Y-53340D01*
X50923Y-53340D02*
X50695Y-53340D01*
X50809Y-53340D02*
X50809Y-52940D01*
X50771Y-52998D01*
X50733Y-53036D01*
X50695Y-53055D01*
X48952Y-50410D02*
X48952Y-50010D01*
X49086Y-50296D01*
X49219Y-50010D01*
X49219Y-50410D01*
X49410Y-50410D02*
X49410Y-50010D01*
X49562Y-50010D01*
X49600Y-50030D01*
X49619Y-50049D01*
X49638Y-50087D01*
X49638Y-50144D01*
X49619Y-50182D01*
X49600Y-50201D01*
X49562Y-50220D01*
X49410Y-50220D01*
X49790Y-50391D02*
X49848Y-50410D01*
X49943Y-50410D01*
X49981Y-50391D01*
X50000Y-50372D01*
X50019Y-50334D01*
X50019Y-50296D01*
X50000Y-50258D01*
X49981Y-50239D01*
X49943Y-50220D01*
X49867Y-50201D01*
X49829Y-50182D01*
X49810Y-50163D01*
X49790Y-50125D01*
X49790Y-50087D01*
X49810Y-50049D01*
X49829Y-50030D01*
X49867Y-50010D01*
X49962Y-50010D01*
X50019Y-50030D01*
X50171Y-50049D02*
X50190Y-50030D01*
X50229Y-50010D01*
X50324Y-50010D01*
X50362Y-50030D01*
X50381Y-50049D01*
X50400Y-50087D01*
X50400Y-50125D01*
X50381Y-50182D01*
X50152Y-50410D01*
X50400Y-50410D01*
X50552Y-50049D02*
X50571Y-50030D01*
X50610Y-50010D01*
X50705Y-50010D01*
X50743Y-50030D01*
X50762Y-50049D01*
X50781Y-50087D01*
X50781Y-50125D01*
X50762Y-50182D01*
X50533Y-50410D01*
X50781Y-50410D01*
X50933Y-50049D02*
X50952Y-50030D01*
X50990Y-50010D01*
X51086Y-50010D01*
X51124Y-50030D01*
X51143Y-50049D01*
X51162Y-50087D01*
X51162Y-50125D01*
X51143Y-50182D01*
X50914Y-50410D01*
X51162Y-50410D01*
X51314Y-50049D02*
X51333Y-50030D01*
X51371Y-50010D01*
X51467Y-50010D01*
X51505Y-50030D01*
X51524Y-50049D01*
X51543Y-50087D01*
X51543Y-50125D01*
X51524Y-50182D01*
X51295Y-50410D01*
X51543Y-50410D01*
X51695Y-50296D02*
X51886Y-50296D01*
X51657Y-50410D02*
X51790Y-50010D01*
X51924Y-50410D01*
X49738Y-40928D02*
X49476Y-41095D01*
X49738Y-41214D02*
X49188Y-41214D01*
X49188Y-41023D01*
X49215Y-40975D01*
X49241Y-40952D01*
X49293Y-40928D01*
X49372Y-40928D01*
X49424Y-40952D01*
X49450Y-40975D01*
X49476Y-41023D01*
X49476Y-41214D01*
X49738Y-40452D02*
X49738Y-40737D01*
X49738Y-40595D02*
X49188Y-40595D01*
X49267Y-40642D01*
X49319Y-40690D01*
X49345Y-40737D01*
X53246Y-49813D02*
X53080Y-49551D01*
X52960Y-49813D02*
X52960Y-49263D01*
X53151Y-49263D01*
X53199Y-49290D01*
X53222Y-49316D01*
X53246Y-49368D01*
X53246Y-49447D01*
X53222Y-49499D01*
X53199Y-49525D01*
X53151Y-49551D01*
X52960Y-49551D01*
X53437Y-49316D02*
X53460Y-49290D01*
X53508Y-49263D01*
X53627Y-49263D01*
X53675Y-49290D01*
X53699Y-49316D01*
X53722Y-49368D01*
X53722Y-49420D01*
X53699Y-49499D01*
X53413Y-49813D01*
X53722Y-49813D01*
G54D18*
X49931Y-46092D02*
X50498Y-46092D01*
X50565Y-46071D01*
X50598Y-46050D01*
X50631Y-46007D01*
X50631Y-45921D01*
X50598Y-45878D01*
X50565Y-45857D01*
X50498Y-45835D01*
X49931Y-45835D01*
X50631Y-45385D02*
X50631Y-45642D01*
X50631Y-45514D02*
X49931Y-45514D01*
X50031Y-45557D01*
X50098Y-45600D01*
X50131Y-45642D01*
G54D15*
G54D13*
X51367Y-45366D02*
X51595Y-45366D01*
X51481Y-46066D02*
X51481Y-45366D01*
X51957Y-46000D02*
X51938Y-46033D01*
X51881Y-46066D01*
X51843Y-46066D01*
X51786Y-46033D01*
X51748Y-45966D01*
X51729Y-45900D01*
X51710Y-45766D01*
X51710Y-45666D01*
X51729Y-45533D01*
X51748Y-45466D01*
X51786Y-45400D01*
X51843Y-45366D01*
X51881Y-45366D01*
X51938Y-45400D01*
X51957Y-45433D01*
X52319Y-46066D02*
X52129Y-46066D01*
X52129Y-45366D01*
X52643Y-45366D02*
X52453Y-45366D01*
X52434Y-45700D01*
X52453Y-45666D01*
X52491Y-45633D01*
X52586Y-45633D01*
X52624Y-45666D01*
X52643Y-45700D01*
X52662Y-45766D01*
X52662Y-45933D01*
X52643Y-46000D01*
X52624Y-46033D01*
X52586Y-46066D01*
X52491Y-46066D01*
X52453Y-46033D01*
X52434Y-46000D01*
X53024Y-45366D02*
X52834Y-45366D01*
X52815Y-45700D01*
X52834Y-45666D01*
X52872Y-45633D01*
X52967Y-45633D01*
X53005Y-45666D01*
X53024Y-45700D01*
X53043Y-45766D01*
X53043Y-45933D01*
X53024Y-46000D01*
X53005Y-46033D01*
X52967Y-46066D01*
X52872Y-46066D01*
X52834Y-46033D01*
X52815Y-46000D01*
X53405Y-45366D02*
X53215Y-45366D01*
X53195Y-45700D01*
X53215Y-45666D01*
X53253Y-45633D01*
X53348Y-45633D01*
X53386Y-45666D01*
X53405Y-45700D01*
X53424Y-45766D01*
X53424Y-45933D01*
X53405Y-46000D01*
X53386Y-46033D01*
X53348Y-46066D01*
X53253Y-46066D01*
X53215Y-46033D01*
X53195Y-46000D01*
X53824Y-46000D02*
X53805Y-46033D01*
X53748Y-46066D01*
X53710Y-46066D01*
X53653Y-46033D01*
X53615Y-45966D01*
X53595Y-45900D01*
X53576Y-45766D01*
X53576Y-45666D01*
X53595Y-45533D01*
X53615Y-45466D01*
X53653Y-45400D01*
X53710Y-45366D01*
X53748Y-45366D01*
X53805Y-45400D01*
X53824Y-45433D01*
X53995Y-46066D02*
X53995Y-45366D01*
X54148Y-45366D01*
X54186Y-45400D01*
X54205Y-45433D01*
X54224Y-45500D01*
X54224Y-45600D01*
X54205Y-45666D01*
X54186Y-45700D01*
X54148Y-45733D01*
X53995Y-45733D01*
G54D15*
G54D10*
X51365Y-37569D02*
X51496Y-37963D01*
X51628Y-37569D01*
X51740Y-37850D02*
X51928Y-37850D01*
X51703Y-37963D02*
X51834Y-37569D01*
X51965Y-37963D01*
X52284Y-37963D02*
X52096Y-37963D01*
X52096Y-37569D01*
X52471Y-37569D02*
X52471Y-37663D01*
X52378Y-37625D02*
X52471Y-37663D01*
X52565Y-37625D01*
X52415Y-37738D02*
X52471Y-37663D01*
X52528Y-37738D01*
X52771Y-37569D02*
X52771Y-37663D01*
X52678Y-37625D02*
X52771Y-37663D01*
X52865Y-37625D01*
X52715Y-37738D02*
X52771Y-37663D01*
X52828Y-37738D01*
X53529Y-52229D02*
X53548Y-52173D01*
X53548Y-52079D01*
X53529Y-52042D01*
X53510Y-52023D01*
X53473Y-52004D01*
X53435Y-52004D01*
X53398Y-52023D01*
X53379Y-52042D01*
X53360Y-52079D01*
X53341Y-52154D01*
X53323Y-52192D01*
X53304Y-52211D01*
X53266Y-52229D01*
X53229Y-52229D01*
X53191Y-52211D01*
X53173Y-52192D01*
X53154Y-52154D01*
X53154Y-52061D01*
X53173Y-52004D01*
X53154Y-51873D02*
X53548Y-51779D01*
X53266Y-51704D01*
X53548Y-51630D01*
X53154Y-51536D01*
X53548Y-51180D02*
X53548Y-51405D01*
X53548Y-51292D02*
X53154Y-51292D01*
X53210Y-51330D01*
X53248Y-51367D01*
X53266Y-51405D01*
X52238Y-53512D02*
X51844Y-53512D01*
X52125Y-53381D01*
X51844Y-53249D01*
X52238Y-53249D01*
X52238Y-53062D02*
X51844Y-53062D01*
X52031Y-53062D02*
X52031Y-52837D01*
X52238Y-52837D02*
X51844Y-52837D01*
X52219Y-52668D02*
X52238Y-52612D01*
X52238Y-52518D01*
X52219Y-52481D01*
X52200Y-52462D01*
X52163Y-52443D01*
X52125Y-52443D01*
X52088Y-52462D01*
X52069Y-52481D01*
X52050Y-52518D01*
X52031Y-52593D01*
X52013Y-52631D01*
X51994Y-52649D01*
X51956Y-52668D01*
X51919Y-52668D01*
X51881Y-52649D01*
X51863Y-52631D01*
X51844Y-52593D01*
X51844Y-52499D01*
X51863Y-52443D01*
X52219Y-52293D02*
X52238Y-52237D01*
X52238Y-52143D01*
X52219Y-52106D01*
X52200Y-52087D01*
X52163Y-52068D01*
X52125Y-52068D01*
X52088Y-52087D01*
X52069Y-52106D01*
X52050Y-52143D01*
X52031Y-52218D01*
X52013Y-52256D01*
X51994Y-52274D01*
X51956Y-52293D01*
X51919Y-52293D01*
X51881Y-52274D01*
X51863Y-52256D01*
X51844Y-52218D01*
X51844Y-52124D01*
X51863Y-52068D01*
X52238Y-51693D02*
X52238Y-51918D01*
X52238Y-51806D02*
X51844Y-51806D01*
X51900Y-51843D01*
X51938Y-51881D01*
X51956Y-51918D01*
X52238Y-51318D02*
X52238Y-51543D01*
X52238Y-51431D02*
X51844Y-51431D01*
X51900Y-51468D01*
X51938Y-51506D01*
X51956Y-51543D01*
X51844Y-51075D02*
X51844Y-51037D01*
X51863Y-51000D01*
X51881Y-50981D01*
X51919Y-50962D01*
X51994Y-50943D01*
X52088Y-50943D01*
X52163Y-50962D01*
X52200Y-50981D01*
X52219Y-51000D01*
X52238Y-51037D01*
X52238Y-51075D01*
X52219Y-51112D01*
X52200Y-51131D01*
X52163Y-51150D01*
X52088Y-51168D01*
X51994Y-51168D01*
X51919Y-51150D01*
X51881Y-51131D01*
X51863Y-51112D01*
X51844Y-51075D01*
X51975Y-50606D02*
X52238Y-50606D01*
X51825Y-50700D02*
X52106Y-50793D01*
X52106Y-50550D01*
M02*
