G04 #@! TF.FileFunction,Copper,L2,Bot,Signal*
%FSLAX46Y46*%
G04 Gerber Fmt 4.6, Leading zero omitted, Abs format (unit mm)*
G04 Created by KiCad (PCBNEW 4.0.5) date 01/24/17 21:51:59*
%MOMM*%
%LPD*%
G01*
G04 APERTURE LIST*
%ADD10C,0.150000*%
%ADD11R,2.000000X2.000000*%
%ADD12C,2.000000*%
%ADD13R,1.700000X1.700000*%
%ADD14O,1.700000X1.700000*%
%ADD15C,1.270000*%
%ADD16C,0.685800*%
%ADD17C,0.914400*%
%ADD18C,0.254000*%
G04 APERTURE END LIST*
D10*
D11*
X129300000Y-54925000D03*
D12*
X126760000Y-54925000D03*
D13*
X125450000Y-67725000D03*
D14*
X125450000Y-70265000D03*
D15*
X126212400Y-74224800D03*
X128701600Y-74224800D03*
X131190800Y-74224800D03*
X126212400Y-77425200D03*
X128701600Y-77425200D03*
X131190800Y-77425200D03*
D16*
X132700000Y-63675000D03*
D17*
X126212400Y-77425200D02*
X126212400Y-74224800D01*
X131190800Y-77425200D02*
X131190800Y-74224800D01*
D18*
G36*
X135595687Y-78069000D02*
X131983972Y-78069000D01*
X132051621Y-78001469D01*
X132206624Y-77628182D01*
X132206976Y-77223992D01*
X132052625Y-76850434D01*
X132029000Y-76826768D01*
X132029000Y-74823651D01*
X132051621Y-74801069D01*
X132206624Y-74427782D01*
X132206976Y-74023592D01*
X132052625Y-73650034D01*
X131767069Y-73363979D01*
X131393782Y-73208976D01*
X130989592Y-73208624D01*
X130616034Y-73362975D01*
X130329979Y-73648531D01*
X130174976Y-74021818D01*
X130174624Y-74426008D01*
X130328975Y-74799566D01*
X130352600Y-74823232D01*
X130352600Y-76826349D01*
X130329979Y-76848931D01*
X130174976Y-77222218D01*
X130174624Y-77626408D01*
X130328975Y-77999966D01*
X130397889Y-78069000D01*
X129494772Y-78069000D01*
X129562421Y-78001469D01*
X129717424Y-77628182D01*
X129717776Y-77223992D01*
X129563425Y-76850434D01*
X129277869Y-76564379D01*
X128904582Y-76409376D01*
X128500392Y-76409024D01*
X128126834Y-76563375D01*
X127840779Y-76848931D01*
X127685776Y-77222218D01*
X127685424Y-77626408D01*
X127839775Y-77999966D01*
X127908689Y-78069000D01*
X127005572Y-78069000D01*
X127073221Y-78001469D01*
X127228224Y-77628182D01*
X127228576Y-77223992D01*
X127074225Y-76850434D01*
X127050600Y-76826768D01*
X127050600Y-74823651D01*
X127073221Y-74801069D01*
X127228224Y-74427782D01*
X127228225Y-74426008D01*
X127685424Y-74426008D01*
X127839775Y-74799566D01*
X128125331Y-75085621D01*
X128498618Y-75240624D01*
X128902808Y-75240976D01*
X129276366Y-75086625D01*
X129562421Y-74801069D01*
X129717424Y-74427782D01*
X129717776Y-74023592D01*
X129563425Y-73650034D01*
X129277869Y-73363979D01*
X128904582Y-73208976D01*
X128500392Y-73208624D01*
X128126834Y-73362975D01*
X127840779Y-73648531D01*
X127685776Y-74021818D01*
X127685424Y-74426008D01*
X127228225Y-74426008D01*
X127228576Y-74023592D01*
X127074225Y-73650034D01*
X126788669Y-73363979D01*
X126415382Y-73208976D01*
X126011192Y-73208624D01*
X125637634Y-73362975D01*
X125351579Y-73648531D01*
X125196576Y-74021818D01*
X125196224Y-74426008D01*
X125350575Y-74799566D01*
X125374200Y-74823232D01*
X125374200Y-76826349D01*
X125351579Y-76848931D01*
X125196576Y-77222218D01*
X125196224Y-77626408D01*
X125350575Y-77999966D01*
X125419489Y-78069000D01*
X124002000Y-78069000D01*
X124002000Y-68790636D01*
X124061673Y-68934699D01*
X124240302Y-69113327D01*
X124473691Y-69210000D01*
X124831636Y-69210000D01*
X124555435Y-69394552D01*
X124288587Y-69793917D01*
X124194883Y-70265000D01*
X124288587Y-70736083D01*
X124555435Y-71135448D01*
X124954800Y-71402296D01*
X125425883Y-71496000D01*
X125474117Y-71496000D01*
X125945200Y-71402296D01*
X126344565Y-71135448D01*
X126611413Y-70736083D01*
X126705117Y-70265000D01*
X126611413Y-69793917D01*
X126344565Y-69394552D01*
X126068364Y-69210000D01*
X126426309Y-69210000D01*
X126659698Y-69113327D01*
X126838327Y-68934699D01*
X126935000Y-68701310D01*
X126935000Y-68010750D01*
X126776250Y-67852000D01*
X125577000Y-67852000D01*
X125577000Y-67872000D01*
X125323000Y-67872000D01*
X125323000Y-67852000D01*
X125303000Y-67852000D01*
X125303000Y-67598000D01*
X125323000Y-67598000D01*
X125323000Y-66398750D01*
X125577000Y-66398750D01*
X125577000Y-67598000D01*
X126776250Y-67598000D01*
X126935000Y-67439250D01*
X126935000Y-66748690D01*
X126838327Y-66515301D01*
X126659698Y-66336673D01*
X126426309Y-66240000D01*
X125735750Y-66240000D01*
X125577000Y-66398750D01*
X125323000Y-66398750D01*
X125164250Y-66240000D01*
X124473691Y-66240000D01*
X124240302Y-66336673D01*
X124061673Y-66515301D01*
X124002000Y-66659364D01*
X124002000Y-55198493D01*
X125378761Y-55198493D01*
X125588563Y-55706251D01*
X125976705Y-56095072D01*
X126484097Y-56305759D01*
X127033493Y-56306239D01*
X127541251Y-56096437D01*
X127665000Y-55972904D01*
X127665000Y-56051309D01*
X127761673Y-56284698D01*
X127940301Y-56463327D01*
X128173690Y-56560000D01*
X129014250Y-56560000D01*
X129173000Y-56401250D01*
X129173000Y-55052000D01*
X129427000Y-55052000D01*
X129427000Y-56401250D01*
X129585750Y-56560000D01*
X130426310Y-56560000D01*
X130659699Y-56463327D01*
X130838327Y-56284698D01*
X130935000Y-56051309D01*
X130935000Y-55210750D01*
X130776250Y-55052000D01*
X129427000Y-55052000D01*
X129173000Y-55052000D01*
X129153000Y-55052000D01*
X129153000Y-54798000D01*
X129173000Y-54798000D01*
X129173000Y-53448750D01*
X129427000Y-53448750D01*
X129427000Y-54798000D01*
X130776250Y-54798000D01*
X130935000Y-54639250D01*
X130935000Y-53798691D01*
X130838327Y-53565302D01*
X130659699Y-53386673D01*
X130426310Y-53290000D01*
X129585750Y-53290000D01*
X129427000Y-53448750D01*
X129173000Y-53448750D01*
X129014250Y-53290000D01*
X128173690Y-53290000D01*
X127940301Y-53386673D01*
X127761673Y-53565302D01*
X127665000Y-53798691D01*
X127665000Y-53876846D01*
X127543295Y-53754928D01*
X127035903Y-53544241D01*
X126486507Y-53543761D01*
X125978749Y-53753563D01*
X125589928Y-54141705D01*
X125379241Y-54649097D01*
X125378761Y-55198493D01*
X124002000Y-55198493D01*
X124002000Y-53123300D01*
X131660856Y-53123300D01*
X135595687Y-78069000D01*
X135595687Y-78069000D01*
G37*
X135595687Y-78069000D02*
X131983972Y-78069000D01*
X132051621Y-78001469D01*
X132206624Y-77628182D01*
X132206976Y-77223992D01*
X132052625Y-76850434D01*
X132029000Y-76826768D01*
X132029000Y-74823651D01*
X132051621Y-74801069D01*
X132206624Y-74427782D01*
X132206976Y-74023592D01*
X132052625Y-73650034D01*
X131767069Y-73363979D01*
X131393782Y-73208976D01*
X130989592Y-73208624D01*
X130616034Y-73362975D01*
X130329979Y-73648531D01*
X130174976Y-74021818D01*
X130174624Y-74426008D01*
X130328975Y-74799566D01*
X130352600Y-74823232D01*
X130352600Y-76826349D01*
X130329979Y-76848931D01*
X130174976Y-77222218D01*
X130174624Y-77626408D01*
X130328975Y-77999966D01*
X130397889Y-78069000D01*
X129494772Y-78069000D01*
X129562421Y-78001469D01*
X129717424Y-77628182D01*
X129717776Y-77223992D01*
X129563425Y-76850434D01*
X129277869Y-76564379D01*
X128904582Y-76409376D01*
X128500392Y-76409024D01*
X128126834Y-76563375D01*
X127840779Y-76848931D01*
X127685776Y-77222218D01*
X127685424Y-77626408D01*
X127839775Y-77999966D01*
X127908689Y-78069000D01*
X127005572Y-78069000D01*
X127073221Y-78001469D01*
X127228224Y-77628182D01*
X127228576Y-77223992D01*
X127074225Y-76850434D01*
X127050600Y-76826768D01*
X127050600Y-74823651D01*
X127073221Y-74801069D01*
X127228224Y-74427782D01*
X127228225Y-74426008D01*
X127685424Y-74426008D01*
X127839775Y-74799566D01*
X128125331Y-75085621D01*
X128498618Y-75240624D01*
X128902808Y-75240976D01*
X129276366Y-75086625D01*
X129562421Y-74801069D01*
X129717424Y-74427782D01*
X129717776Y-74023592D01*
X129563425Y-73650034D01*
X129277869Y-73363979D01*
X128904582Y-73208976D01*
X128500392Y-73208624D01*
X128126834Y-73362975D01*
X127840779Y-73648531D01*
X127685776Y-74021818D01*
X127685424Y-74426008D01*
X127228225Y-74426008D01*
X127228576Y-74023592D01*
X127074225Y-73650034D01*
X126788669Y-73363979D01*
X126415382Y-73208976D01*
X126011192Y-73208624D01*
X125637634Y-73362975D01*
X125351579Y-73648531D01*
X125196576Y-74021818D01*
X125196224Y-74426008D01*
X125350575Y-74799566D01*
X125374200Y-74823232D01*
X125374200Y-76826349D01*
X125351579Y-76848931D01*
X125196576Y-77222218D01*
X125196224Y-77626408D01*
X125350575Y-77999966D01*
X125419489Y-78069000D01*
X124002000Y-78069000D01*
X124002000Y-68790636D01*
X124061673Y-68934699D01*
X124240302Y-69113327D01*
X124473691Y-69210000D01*
X124831636Y-69210000D01*
X124555435Y-69394552D01*
X124288587Y-69793917D01*
X124194883Y-70265000D01*
X124288587Y-70736083D01*
X124555435Y-71135448D01*
X124954800Y-71402296D01*
X125425883Y-71496000D01*
X125474117Y-71496000D01*
X125945200Y-71402296D01*
X126344565Y-71135448D01*
X126611413Y-70736083D01*
X126705117Y-70265000D01*
X126611413Y-69793917D01*
X126344565Y-69394552D01*
X126068364Y-69210000D01*
X126426309Y-69210000D01*
X126659698Y-69113327D01*
X126838327Y-68934699D01*
X126935000Y-68701310D01*
X126935000Y-68010750D01*
X126776250Y-67852000D01*
X125577000Y-67852000D01*
X125577000Y-67872000D01*
X125323000Y-67872000D01*
X125323000Y-67852000D01*
X125303000Y-67852000D01*
X125303000Y-67598000D01*
X125323000Y-67598000D01*
X125323000Y-66398750D01*
X125577000Y-66398750D01*
X125577000Y-67598000D01*
X126776250Y-67598000D01*
X126935000Y-67439250D01*
X126935000Y-66748690D01*
X126838327Y-66515301D01*
X126659698Y-66336673D01*
X126426309Y-66240000D01*
X125735750Y-66240000D01*
X125577000Y-66398750D01*
X125323000Y-66398750D01*
X125164250Y-66240000D01*
X124473691Y-66240000D01*
X124240302Y-66336673D01*
X124061673Y-66515301D01*
X124002000Y-66659364D01*
X124002000Y-55198493D01*
X125378761Y-55198493D01*
X125588563Y-55706251D01*
X125976705Y-56095072D01*
X126484097Y-56305759D01*
X127033493Y-56306239D01*
X127541251Y-56096437D01*
X127665000Y-55972904D01*
X127665000Y-56051309D01*
X127761673Y-56284698D01*
X127940301Y-56463327D01*
X128173690Y-56560000D01*
X129014250Y-56560000D01*
X129173000Y-56401250D01*
X129173000Y-55052000D01*
X129427000Y-55052000D01*
X129427000Y-56401250D01*
X129585750Y-56560000D01*
X130426310Y-56560000D01*
X130659699Y-56463327D01*
X130838327Y-56284698D01*
X130935000Y-56051309D01*
X130935000Y-55210750D01*
X130776250Y-55052000D01*
X129427000Y-55052000D01*
X129173000Y-55052000D01*
X129153000Y-55052000D01*
X129153000Y-54798000D01*
X129173000Y-54798000D01*
X129173000Y-53448750D01*
X129427000Y-53448750D01*
X129427000Y-54798000D01*
X130776250Y-54798000D01*
X130935000Y-54639250D01*
X130935000Y-53798691D01*
X130838327Y-53565302D01*
X130659699Y-53386673D01*
X130426310Y-53290000D01*
X129585750Y-53290000D01*
X129427000Y-53448750D01*
X129173000Y-53448750D01*
X129014250Y-53290000D01*
X128173690Y-53290000D01*
X127940301Y-53386673D01*
X127761673Y-53565302D01*
X127665000Y-53798691D01*
X127665000Y-53876846D01*
X127543295Y-53754928D01*
X127035903Y-53544241D01*
X126486507Y-53543761D01*
X125978749Y-53753563D01*
X125589928Y-54141705D01*
X125379241Y-54649097D01*
X125378761Y-55198493D01*
X124002000Y-55198493D01*
X124002000Y-53123300D01*
X131660856Y-53123300D01*
X135595687Y-78069000D01*
M02*
